<svg width="192" height="192" viewBox="0 0 192 192" fill="none" xmlns="http://www.w3.org/2000/svg">
<circle cx="96" cy="96" r="96" fill="#23995B"/>
<path d="M123.318 120.095C107.191 136.222 87.3358 134.454 74.5259 128.929C70.8242 132.174 66.0382 139.713 66.0382 139.713C64.4657 142.377 56.5162 139.434 57.2243 136.169C61.7796 125.15 77.1977 95.0215 109.211 80.9221C110.068 80.3594 110.724 80.1008 111.521 79.7862C112.057 79.5745 112.658 79.3374 113.428 78.9652C85.9687 82.125 71.6497 94.1391 58.352 115.301C58.0393 115.799 57.2835 115.721 57.0768 115.17C44.5289 81.7706 70.5386 62.2267 94.6043 58.7333L135.588 51.3872C135.985 51.316 136.367 51.564 136.45 51.9587C140.932 73.2353 136.935 106.478 123.318 120.095Z" fill="white"/>
</svg>
